# xmcd
# 
# Track frame offsets:
#     150
#     10259
#     22500
#     35148
#     45476
#     56309
#     70676
#     84323
#     98426
#     112365
#     122357
#     133803
#     149457
#     158520
#     170952
#     181417
#     194197
#     205903
#     219867
#     234068
# 
# Disc length: 3246
# 
# Revision: 1
# Processed by: cddbd v1.5.2PL0 Copyright (c) Steve Scherf et al.
# Submitted via: fre:ac v1.0.17
# 
DISCID=0b0cac14
DTITLE=Charlie Pride - 40 Years Of Pride
DYEAR=2013
DGENRE=Country
TTITLE0=Just Between You And Me
TTITLE1=The Snakes Crawl At Night
TTITLE2=Crystal Chandeliers
TTITLE3=Does My Ring Hurt Your Finger
TTITLE4=Wings Of A Dove
TTITLE5=Kaw-Liga
TTITLE6=All I Have To Offer You (Is Me)
TTITLE7=(I'm So) Afraid Of Losing You Again
TTITLE8=I Can't Believe You've Stopped Loving Me
TTITLE9=Is Anybody Goin' To San Antone
TTITLE10=Wondder Could I Live There Anymore
TTITLE11=Me And Bobby McGee
TTITLE12=Kiss An Angel Good Mornin'
TTITLE13=I'd Rather Love You
TTITLE14=I'm Just Me
TTITLE15=She's too Good To Be True
TTITLE16=It's Gonna Take A Little Bit Longer
TTITLE17=A Shoulder To Cry On
TTITLE18=Amazing Love
TTITLE19=Don't fight The Feelings Of Love
EXTD=
EXTT0=
EXTT1=
EXTT2=
EXTT3=
EXTT4=
EXTT5=
EXTT6=
EXTT7=
EXTT8=
EXTT9=
EXTT10=
EXTT11=
EXTT12=
EXTT13=
EXTT14=
EXTT15=
EXTT16=
EXTT17=
EXTT18=
EXTT19=
PLAYORDER=
